<?xml version="1.0" encoding="UTF-8" standalone="no"?>
<!DOCTYPE svg PUBLIC "-//W3C//DTD SVG 1.1//EN"
 "http://www.w3.org/Graphics/SVG/1.1/DTD/svg11.dtd">
<!-- Generated by graphviz version 5.0.0 (20220707.1540)
 -->
<!-- Title: dependencies Pages: 1 -->
<svg width="545pt" height="247pt"
 viewBox="0.00 0.00 545.00 246.80" xmlns="http://www.w3.org/2000/svg" xmlns:xlink="http://www.w3.org/1999/xlink">
<g id="graph0" class="graph" transform="scale(1 1) rotate(0) translate(4 242.8)">
<title>dependencies</title>
<polygon fill="white" stroke="transparent" points="-4,4 -4,-242.8 541,-242.8 541,4 -4,4"/>
<text text-anchor="middle" x="268.5" y="-8.2" font-family="sans-serif" font-size="14.00">dependencies</text>
<g id="clust1" class="cluster">
<title>cluster_AppModule</title>
<polygon fill="none" stroke="black" stroke-dasharray="1,5" points="8,-32.8 8,-230.8 529,-230.8 529,-32.8 8,-32.8"/>
</g>
<g id="clust2" class="cluster">
<title>cluster_AppModule_declarations</title>
<polygon fill="none" stroke="black" points="188,-40.8 188,-92.8 521,-92.8 521,-40.8 188,-40.8"/>
</g>
<g id="clust8" class="cluster">
<title>cluster_AppModule_providers</title>
<polygon fill="none" stroke="black" points="16,-40.8 16,-92.8 180,-92.8 180,-40.8 16,-40.8"/>
</g>
<g id="clust7" class="cluster">
<title>cluster_AppModule_bootstrap</title>
<polygon fill="none" stroke="black" points="231,-170.8 231,-222.8 355,-222.8 355,-170.8 231,-170.8"/>
</g>
<!-- AppComponent -->
<g id="node1" class="node">
<title>AppComponent</title>
<polygon fill="#ffffb3" stroke="black" points="512.94,-84.8 407.06,-84.8 407.06,-48.8 512.94,-48.8 512.94,-84.8"/>
<text text-anchor="middle" x="460" y="-62.6" font-family="Times,serif" font-size="14.00">AppComponent</text>
</g>
<!-- AppModule -->
<g id="node3" class="node">
<title>AppModule</title>
<polygon fill="#8dd3c7" stroke="black" points="334.66,-149.8 331.66,-153.8 310.66,-153.8 307.66,-149.8 251.34,-149.8 251.34,-113.8 334.66,-113.8 334.66,-149.8"/>
<text text-anchor="middle" x="293" y="-127.6" font-family="Times,serif" font-size="14.00">AppModule</text>
</g>
<!-- AppComponent&#45;&gt;AppModule -->
<g id="edge1" class="edge">
<title>AppComponent&#45;&gt;AppModule</title>
<path fill="none" stroke="black" d="M460,-84.91C460,-104.14 460,-131.8 460,-131.8 460,-131.8 344.71,-131.8 344.71,-131.8"/>
<polygon fill="black" stroke="black" points="344.71,-128.3 334.71,-131.8 344.71,-135.3 344.71,-128.3"/>
</g>
<!-- ModalNovoUsuarioComponent -->
<g id="node2" class="node">
<title>ModalNovoUsuarioComponent</title>
<polygon fill="#ffffb3" stroke="black" points="389.82,-84.8 196.18,-84.8 196.18,-48.8 389.82,-48.8 389.82,-84.8"/>
<text text-anchor="middle" x="293" y="-62.6" font-family="Times,serif" font-size="14.00">ModalNovoUsuarioComponent</text>
</g>
<!-- ModalNovoUsuarioComponent&#45;&gt;AppModule -->
<g id="edge2" class="edge">
<title>ModalNovoUsuarioComponent&#45;&gt;AppModule</title>
<path fill="none" stroke="black" d="M293,-84.91C293,-84.91 293,-103.79 293,-103.79"/>
<polygon fill="black" stroke="black" points="289.5,-103.79 293,-113.79 296.5,-103.79 289.5,-103.79"/>
</g>
<!-- AppComponent  -->
<g id="node4" class="node">
<title>AppComponent </title>
<polygon fill="#80b1d3" stroke="black" points="347.44,-214.8 238.56,-214.8 238.56,-178.8 347.44,-178.8 347.44,-214.8"/>
<text text-anchor="middle" x="293" y="-192.6" font-family="Times,serif" font-size="14.00">AppComponent </text>
</g>
<!-- AppModule&#45;&gt;AppComponent  -->
<g id="edge3" class="edge">
<title>AppModule&#45;&gt;AppComponent </title>
<path fill="none" stroke="black" stroke-dasharray="1,5" d="M293,-149.91C293,-149.91 293,-168.79 293,-168.79"/>
<polygon fill="black" stroke="black" points="289.5,-168.79 293,-178.79 296.5,-168.79 289.5,-168.79"/>
</g>
<!-- UsuariosService -->
<g id="node5" class="node">
<title>UsuariosService</title>
<ellipse fill="#fdb462" stroke="black" cx="98" cy="-66.8" rx="74.15" ry="18"/>
<text text-anchor="middle" x="98" y="-62.6" font-family="Times,serif" font-size="14.00">UsuariosService</text>
</g>
<!-- UsuariosService&#45;&gt;AppModule -->
<g id="edge4" class="edge">
<title>UsuariosService&#45;&gt;AppModule</title>
<path fill="none" stroke="black" d="M98,-84.91C98,-104.14 98,-131.8 98,-131.8 98,-131.8 241.17,-131.8 241.17,-131.8"/>
<polygon fill="black" stroke="black" points="241.17,-135.3 251.17,-131.8 241.17,-128.3 241.17,-135.3"/>
</g>
</g>
</svg>
