<svg width="102" height="48" xmlns="http://www.w3.org/2000/svg"><g fill-rule="nonzero" fill="none"><path d="M49.904 37.834h-4.08v-5.657h4.08c1.93.03 3.245 1.119 3.245 2.822 0 1.705-1.316 2.835-3.245 2.835M50.46 28H41v20h4.823v-5.725h4.607c5.087 0 7.57-3.613 7.57-7.276C58 31.337 55.546 28 50.46 28M96.083 40.206L86.917 28H82v20h4.917V35.765L96.083 48H101V28h-4.917zM43.254 21.926v-1.94h1.952c.894 0 1.361.234 1.361.97 0 .647-.454.97-1.36.97h-1.953zm0-5.867h1.801c.866 0 1.279.323 1.279 1 0 .78-.303 1.088-1.279 1.088h-1.8V16.06zM49 21.089c0-1.074-.495-1.942-1.402-2.427.206-.162.88-.882.88-1.912 0-1.603-.852-2.75-3.56-2.75H41v10h4.468C48.024 24 49 22.72 49 21.088zM68.448 17.882L73.552 24H76V14h-2.448v6.103L68.448 14H66v10h2.448zM89 22.018l-1.988-1.366A2.6 2.6 0 0 1 82.407 19a2.599 2.599 0 0 1 4.6-1.656l1.989-1.367A4.998 4.998 0 0 0 85.008 14 5.003 5.003 0 0 0 80 19c0 2.761 2.24 5 5.008 5 1.63 0 3.077-.777 3.992-1.982M97 16.402a2.598 2.598 0 0 1 0 5.194 2.597 2.597 0 0 1 0-5.194M97 24a5 5 0 1 0 0-10 5 5 0 0 0 0 10M57.538 16.735l1.353 3.32c-.45.068-.909.106-1.367.106-.458 0-.91-.037-1.358-.105l1.372-3.32zm-2.232 5.402a10.97 10.97 0 0 0 4.207.046c.075-.014.15-.032.225-.047l.76 1.864H63l-4.175-10H56.21L52 24h2.536l.77-1.863zM68 40.405c-.93 0-1.852-.073-2.762-.211l2.791-6.723 2.75 6.72c-.916.14-1.848.214-2.779.214zM65.358 28L57 48h4.998l1.546-3.726a22.13 22.13 0 0 0 8.45.092c.152-.028.303-.064.454-.095L73.974 48H79l-8.386-20h-5.256zM14.5 32.046c-3.28 0-5.946-2.614-5.946-5.83s2.666-5.83 5.946-5.83 5.946 2.614 5.946 5.83-2.666 5.83-5.946 5.83M14.5 12C6.504 12 0 18.377 0 26.216V48h8.554v-8.797l.673.259c1.683.644 3.455.97 5.273.97 7.996 0 14.5-6.377 14.5-14.216C29 18.377 22.496 12 14.5 12" fill="#414141"/><path fill="#00C5FF" d="M0 8h8V0H0z"/></g></svg>