<?xml version="1.0" encoding="UTF-8"?>
<svg width="60px" height="28px" viewBox="0 0 60 28" version="1.1" xmlns="http://www.w3.org/2000/svg" xmlns:xlink="http://www.w3.org/1999/xlink">
    <!-- Generator: Sketch 54.1 (76490) - https://sketchapp.com -->
    <title>Banco PAN - 616161 e azul</title>
    <desc>Created with Sketch.</desc>
    <g id="Mega-menu" stroke="none" stroke-width="1" fill="none" fill-rule="evenodd">
        <g id="Mobile---Home" transform="translate(-16.000000, -16.000000)" fill-rule="nonzero">
            <g id="Banco-PAN---616161-e-azul" transform="translate(16.000000, 16.000000)">
                <path d="M29.2377647,21.9002804 L26.8371425,21.9002804 L26.8371425,18.5062529 L29.2377647,18.5062529 C30.3725021,18.5239372 31.1463444,19.1773953 31.1463444,20.1996439 C31.1463444,21.2221381 30.3725021,21.9002804 29.2377647,21.9002804 M29.564437,16 L24,16 L24,28 L26.8371425,28 L26.8371425,24.5650777 L29.5472059,24.5650777 C32.5391887,24.5650777 34,22.3969134 34,20.1996439 C34,18.0024971 32.5561804,16 29.564437,16" id="Fill-1" fill="#414141"></path>
                <polygon id="Fill-3" fill="#414141" points="56.1535187 23.3234504 50.8466007 16 48 16 48 28 50.8466007 28 50.8466007 20.6588336 56.1535187 28 59 28 59 16 56.1535187 16"></polygon>
                <path d="M25.4088886,12.7558703 L25.4088886,11.5911293 L26.6289495,11.5911293 C27.1874486,11.5911293 27.47946,11.7322649 27.47946,12.1735619 C27.47946,12.5618089 27.1959162,12.7558703 26.6289495,12.7558703 L25.4088886,12.7558703 Z M25.4088886,9.23530873 L26.5344753,9.23530873 C27.0756762,9.23530873 27.3334543,9.42937011 27.3334543,9.83525904 C27.3334543,10.3028948 27.1445057,10.4882594 26.5344753,10.4882594 L25.4088886,10.4882594 L25.4088886,9.23530873 Z M29,12.2529507 C29,11.6088955 28.6908114,11.0882097 28.1238448,10.7969934 C28.2526733,10.6999627 28.6736343,10.2677351 28.6736343,9.65001864 C28.6736343,8.68828426 28.1410219,8 26.4485895,8 L24,8 L24,14 L26.7922534,14 C28.3902114,14 29,13.232327 29,12.2529507 L29,12.2529507 Z" id="Fill-5" fill="#414141"></path>
                <polygon id="Fill-7" fill="#414141" points="40.4688505 10.3294059 43.5312748 14 45 14 45 8 43.5312748 8 43.5312748 11.6617729 40.4688505 8 39 8 39 14 40.4688505 14"></polygon>
                <path d="M52,12.8106843 L50.8953592,11.9914766 C50.6310293,12.3376951 50.230192,12.5581032 49.7820336,12.5581032 C48.984256,12.5581032 48.3372378,11.8603842 48.3372378,10.9995198 C48.3372378,10.1394958 48.984256,9.44189676 49.7820336,9.44189676 C50.2286331,9.44189676 50.6293591,9.66134454 50.893021,10.0058824 L51.9976618,9.18583433 C51.4894892,8.46446579 50.6862557,8 49.7820336,8 C48.2449339,8 47,9.34321729 47,10.9995198 C47,12.6566627 48.2449339,14 49.7820336,14 C50.6878145,14 51.4919387,13.5337335 52,12.8106843" id="Fill-9" fill="#414141"></path>
                <path d="M57,9.4412006 C57.8602473,9.4412006 58.5579301,10.1397099 58.5579301,10.99994 C58.5579301,11.8601701 57.8602473,12.5577189 57,12.5577189 C56.1397527,12.5577189 55.4420699,11.8601701 55.4420699,10.99994 C55.4420699,10.1397099 56.1397527,9.4412006 57,9.4412006 M57,14 C58.6569816,14 60,12.6568884 60,10.99994 C60,9.3429915 58.6569816,8 57,8 C55.3430184,8 54,9.3429915 54,10.99994 C54,12.6568884 55.3430184,14 57,14" id="Fill-11" fill="#414141"></path>
                <path d="M33.5244056,9.64110741 L34.3849448,11.6327004 C34.0982265,11.6740728 33.8067681,11.6963121 33.5153096,11.6963121 C33.2241073,11.6963121 32.9355955,11.6745698 32.6510551,11.6336943 L33.5244056,9.64110741 Z M32.1036256,12.8821982 C32.5661158,12.9721492 33.0380863,13.0182428 33.5153096,13.0182428 C33.9398781,13.0182428 34.3655997,12.9817158 34.7806878,12.9097799 C34.8286023,12.9014557 34.8765168,12.8907709 34.9244313,12.8814528 L35.4078039,14 L37,14 L34.3433079,8 L32.6782152,8 L30,14 L31.613591,14 L32.1036256,12.8821982 Z" id="Fill-13" fill="#414141"></path>
                <path d="M39.5,23.4431095 C38.9504597,23.4431095 38.4056436,23.3991444 37.8681499,23.3163723 L39.5172433,19.2823956 L41.1421252,23.3142845 C40.6009703,23.3980392 40.050367,23.4431095 39.5,23.4431095 L39.5,23.4431095 Z M37.9386583,16 L33,28 L35.9530853,28 L36.866978,25.7644145 C37.7297314,25.9443273 38.6102006,26.0364329 39.5001181,26.0364329 C40.2922451,26.0364329 41.0863798,25.9633625 41.8602006,25.819555 C41.9497238,25.8028532 42.0390108,25.7814847 42.1285341,25.762818 L43.0301439,28 L46,28 L41.0444527,16 L37.9386583,16 Z" id="Fill-15" fill="#414141"></path>
                <path d="M8.49993964,18.693677 C6.57710143,18.693677 5.01413142,17.1686913 5.01413142,15.2928458 C5.01413142,13.4167648 6.57710143,11.8918969 8.49993964,11.8918969 C10.4228986,11.8918969 11.9858686,13.4167648 11.9858686,15.2928458 C11.9858686,17.1686913 10.4228986,18.693677 8.49993964,18.693677 M8.49993964,7 C3.81284041,7 0,10.719891 0,15.2928458 L0,28 L5.01413142,28 L5.01413142,22.8684255 L5.40876716,23.0194165 C6.39529616,23.3950096 7.43421791,23.5855739 8.49993964,23.5855739 C13.1871596,23.5855739 17,19.8656829 17,15.2928458 C17,10.719891 13.1871596,7 8.49993964,7" id="Fill-17" fill="#414141"></path>
                <polygon id="Fill-19" fill="#00C5FF" points="0 5 5 5 5 0 0 0"></polygon>
            </g>
        </g>
    </g>
</svg>